<?xml version="1.0" encoding="utf-8"?>
<!-- Generator: Adobe Illustrator 16.0.0, SVG Export Plug-In . SVG Version: 6.00 Build 0)  -->
<!DOCTYPE svg PUBLIC "-//W3C//DTD SVG 1.1//EN" "http://www.w3.org/Graphics/SVG/1.1/DTD/svg11.dtd">
<svg version="1.1" id="Capa_1" xmlns="http://www.w3.org/2000/svg" xmlns:xlink="http://www.w3.org/1999/xlink" x="0px" y="0px"
	 width="1672.417px" height="836.563px" viewBox="0 0 1672.417 836.563" enable-background="new 0 0 1672.417 836.563"
	 xml:space="preserve">
<linearGradient id="SVGID_1_" gradientUnits="userSpaceOnUse" x1="320.8579" y1="567.042" x2="494.5791" y2="266.148">
	<stop  offset="0" style="stop-color:#812C87"/>
	<stop  offset="1" style="stop-color:#2A4D9D"/>
</linearGradient>
<path fill="url(#SVGID_1_)" d="M540.136,310.407c-29.279,0-53.557,9.823-71.375,25.942l-0.084,0.029l-0.065,0.104
	c-12.461,11.318-21.74,25.721-27.325,42.032l-0.044,0.067l-31.947,84.59c0,0-13.138-35.206-17.517-46.94
	c-0.145-0.389-0.304-0.814-0.471-1.257c-23.411-76.252-50.341-106.008-113.015-106.008c-65.883,0-107.883,44.469-107.883,106.233
	c0,65.061,41.59,108.295,111.587,108.295c30.886,0,65.881-10.705,87.294-32.939l-32.115-31.709
	c-11.529,11.943-35.825,18.941-54.355,18.941c-35.408,0-57.233-18.117-60.529-43.234l131.783,0.455
	c16.144,41.596,33.084,86.358,33.084,86.358h44.271l19.847-45.717c17.399,28.009,48.217,46.402,89.272,46.402
	c65.884,0,105.821-47.349,105.821-105.819C646.369,358.175,604.779,310.407,540.136,310.407z M223.115,392.968
	c7.412-26.353,29.646-39.532,56.825-39.532c26.907,0,42.579,6.092,55.114,33.385c0.791,1.95,1.622,4.005,2.481,6.147H223.115z
	 M540.548,475.938c-36.646,0-55.179-28.822-55.179-59.705c0-30.472,18.943-60.119,55.179-60.119
	c33.764,0,55.179,29.647,55.179,60.119C595.727,447.116,577.195,475.938,540.548,475.938z"/>
<path fill="#64539F" d="M540.136,310.407c-29.279,0-53.557,9.823-71.375,25.942l-0.084,0.029l-0.067,0.104
	c-12.459,11.318-21.738,25.721-27.323,42.032l-0.044,0.067l-31.947,84.593c0,0-13.14-35.209-17.519-46.945
	c-0.143-0.387-0.302-0.813-0.469-1.255c-23.411-76.252-50.341-106.008-113.016-106.008c-11.14,0-21.577,1.299-31.264,3.711
	c47.874,15.291,73.216,36.532,90.508,80.29c2.752,6.961,13.942,34.189,16.589,42.175c16.131,41.558,33.033,86.225,33.033,86.225
	h44.271l19.847-45.717c17.399,28.009,48.217,46.402,89.272,46.402c65.884,0,105.821-47.349,105.821-105.819
	C646.369,358.175,604.779,310.407,540.136,310.407z M540.548,475.938c-36.646,0-55.179-28.824-55.179-59.705
	c0-30.472,18.943-60.119,55.179-60.119c33.764,0,55.179,29.647,55.179,60.119C595.727,447.114,577.195,475.938,540.548,475.938z"/>
<linearGradient id="SVGID_2_" gradientUnits="userSpaceOnUse" x1="451.2754" y1="453.7441" x2="605.7529" y2="453.7441">
	<stop  offset="0" style="stop-color:#812C87"/>
	<stop  offset="1" style="stop-color:#2A4D9D"/>
</linearGradient>
<path fill="url(#SVGID_2_)" d="M451.275,475.65l41.183-90.269c0,0-4.753,8.769-6.462,21.295c-0.764,5.604-0.904,11.946-0.087,18.604
	c0.4,3.269,0.998,6.621,1.934,9.984c0.865,3.111,1.888,6.25,3.319,9.354c5.146,11.158,11.806,17.992,18.341,22.4
	c4.561,3.076,9.015,4.996,13.042,6.28c5.688,1.813,9.5,2.093,9.5,2.093s12.311,17.283,34.642,25.09
	c21.644,7.563,39.066,1.527,39.066,1.527s-8.949,7.422-24.683,13.211c-8.907,3.277-20.043,5.813-32.661,6.604
	c-7.838,0.493-16.23,0.436-25.077-0.914c-1.425-0.217-2.796-0.397-4.16-0.631c-2.565-0.438-5.056-0.959-7.482-1.545
	c-7.063-1.706-13.509-4.004-19.187-6.646C462.838,498.281,451.275,475.65,451.275,475.65z"/>
<g>
	<path fill="#3C3C3B" d="M737.527,441.061c1.449,11.057,11.059,19.035,26.648,19.035c8.16,0,18.854-3.084,23.932-8.341
		l14.141,13.962c-9.428,9.786-24.838,14.502-38.436,14.502c-30.818,0-49.129-19.037-49.129-47.681
		c0-27.192,18.492-46.775,47.498-46.775c29.914,0,48.586,18.496,45.143,55.298H737.527z M786.113,422.746
		c-1.451-11.6-10.516-17.4-23.205-17.4c-11.967,0-21.758,5.801-25.02,17.4H786.113z"/>
	<path fill="#3C3C3B" d="M915.001,388.303l-38.07,89.922h-23.93l-38.252-89.922h24.111l12.328,29.552l13.779,37.708l13.596-37.348
		l12.326-29.912H915.001z"/>
	<path fill="#3C3C3B" d="M1014.523,433.264c0,25.74-17.588,46.59-46.592,46.59c-29.008,0-46.412-20.85-46.412-46.59
		c0-25.563,17.768-46.592,46.23-46.592C996.21,386.672,1014.523,407.701,1014.523,433.264z M943.638,433.264
		c0,13.596,8.158,26.283,24.293,26.283c16.137,0,24.293-12.688,24.293-26.283c0-13.417-9.428-26.468-24.293-26.468
		C951.976,406.796,943.638,419.847,943.638,433.264z"/>
	<path fill="#3C3C3B" d="M1051.675,351.138v126.726h-21.936V351.138H1051.675z"/>
	<path fill="#3C3C3B" d="M1093.732,388.481v46.775c0,13.597,7.434,23.933,21.574,23.933c13.596,0,22.842-11.424,22.842-25.019
		v-45.689h21.938v89.56h-19.762l-1.451-12.146c-9.248,9.064-17.768,13.418-30.273,13.418c-21.393,0-36.986-16.137-36.986-43.872
		v-46.959H1093.732z"/>
	<path fill="#3C3C3B" d="M1210.835,363.284v25.38h24.656v19.037h-24.838v38.615c0,8.52,4.719,12.688,11.602,12.688
		c3.449,0,7.436-1.088,10.699-2.719l6.164,18.857c-6.346,2.535-11.602,3.625-18.309,3.805c-19.4,0.722-32.088-10.332-32.088-32.631
		v-38.615h-16.684v-19.037h16.684v-23.022L1210.835,363.284z"/>
	<path fill="#3C3C3B" d="M1276.095,363.284c0,17.223-26.111,17.223-26.111,0C1249.984,346.061,1276.095,346.061,1276.095,363.284z
		 M1251.982,388.122v89.741h22.117v-89.741H1251.982z"/>
	<path fill="#3C3C3B" d="M1384.857,433.264c0,25.74-17.58,46.59-46.592,46.59c-29.004,0-46.408-20.85-46.408-46.59
		c0-25.563,17.766-46.592,46.229-46.592C1366.552,386.672,1384.857,407.701,1384.857,433.264z M1313.976,433.264
		c0,13.596,8.158,26.283,24.289,26.283c16.137,0,24.303-12.688,24.303-26.283c0-13.417-9.432-26.468-24.303-26.468
		C1322.316,406.796,1313.976,419.847,1313.976,433.264z"/>
	<path fill="#3C3C3B" d="M1465.892,477.863v-46.776c0-13.598-7.436-23.932-21.576-23.932c-13.602,0-22.844,11.422-22.844,25.018
		v45.69h-21.939v-89.561h19.766l1.445,12.147c9.068-8.883,18.129-13.418,29.371-13.418c21.033,0,37.893,15.774,37.893,43.875v46.956
		H1465.892z"/>
</g>
</svg>
